<?xml version="1.0" standalone="no"?>
<!DOCTYPE svg PUBLIC "-//W3C//DTD SVG 20010904//EN"
 "http://www.w3.org/TR/2001/REC-SVG-20010904/DTD/svg10.dtd">
<svg version="1.0" xmlns="http://www.w3.org/2000/svg"
 width="720.000000pt" height="720.000000pt" viewBox="0 0 720.000000 720.000000"
 preserveAspectRatio="xMidYMid meet">
<metadata>
Created by potrace 1.16, written by Peter Selinger 2001-2019
</metadata>
<g transform="translate(0.000000,720.000000) scale(0.100000,-0.100000)"
fill="#ff0000" stroke="none">
<path d="M612 4238 l3 -753 2648 -3 2647 -2 0 755 0 755 -2650 0 -2650 0 2
-752z m5198 2 l0 -650 -2550 0 -2550 0 0 650 0 650 2550 0 2550 0 0 -650z"/>
<path d="M5082 4580 c-29 -50 -52 -93 -52 -95 0 -3 15 -5 33 -5 26 0 43 10 86
54 48 48 52 57 49 92 -3 35 -6 39 -34 42 -29 3 -33 -2 -82 -88z"/>
<path d="M1360 4618 c-20 -22 -40 -76 -40 -110 0 -26 47 -24 55 2 8 25 16 25
61 1 48 -26 73 -16 102 39 30 60 29 90 -2 90 -16 0 -27 -7 -31 -20 -8 -25 -13
-25 -50 0 -39 26 -69 25 -95 -2z"/>
<path d="M1391 4433 c-5 -21 -38 -148 -73 -283 -49 -192 -67 -250 -85 -266
-13 -12 -23 -31 -23 -43 0 -20 5 -21 75 -21 73 0 75 1 75 25 0 14 -6 25 -13
25 -27 0 -34 20 -24 70 l10 50 54 0 c59 0 68 -9 75 -81 2 -29 0 -34 -19 -37
-17 -3 -23 -10 -23 -28 0 -24 0 -24 110 -24 102 0 110 1 110 20 0 10 -10 29
-23 42 -16 16 -33 59 -52 133 -106 404 -120 450 -142 453 -18 3 -24 -4 -32
-35z"/>
<path d="M2827 4463 c-3 -5 -35 -125 -71 -268 -86 -336 -84 -332 -133 -314
-23 8 -23 9 -23 248 0 132 3 246 6 255 3 9 15 16 25 16 14 0 19 7 19 25 l0 25
-415 0 -415 0 -1 -42 c-1 -24 -2 -65 -3 -93 -2 -63 2 -75 24 -75 14 0 20 11
25 43 10 58 40 107 66 107 5 0 9 -105 9 -255 l0 -255 -25 -6 c-18 -4 -25 -13
-25 -30 0 -24 0 -24 121 -24 l120 0 -3 27 c-2 19 -10 29 -28 33 l-25 6 -3 253
c-2 229 -1 253 14 247 8 -3 17 -6 20 -6 9 0 32 -58 39 -98 6 -37 10 -43 28
-40 20 3 22 9 23 78 0 67 2 75 20 75 18 0 19 -11 22 -253 2 -247 2 -254 -18
-259 -11 -3 -20 -10 -21 -17 0 -6 -2 -19 -4 -28 -3 -17 16 -18 296 -18 l299 0
0 24 c0 18 -6 25 -22 28 -19 2 -23 9 -21 36 3 76 8 82 68 82 60 0 65 -6 68
-82 2 -27 -2 -34 -20 -36 -17 -3 -23 -10 -23 -28 l0 -24 195 0 195 0 0 25 c0
18 -7 28 -24 34 -13 5 -26 20 -29 33 -9 33 -9 308 1 308 4 0 25 -35 47 -78
163 -314 180 -343 200 -340 19 3 20 13 25 298 l5 295 29 3 c16 2 32 -2 37 -10
5 -7 9 -122 9 -256 0 -222 -1 -243 -17 -249 -22 -8 -33 -23 -33 -45 0 -17 18
-18 230 -18 l230 0 0 23 c0 16 -9 28 -25 35 l-25 12 0 239 c0 132 3 246 6 255
3 9 15 16 25 16 14 0 19 7 19 25 l0 25 -305 0 -305 0 0 -25 c0 -17 5 -25 18
-25 36 0 42 -20 42 -142 0 -66 -4 -118 -9 -118 -5 0 -11 6 -13 13 -2 8 -37 78
-78 155 l-75 142 -77 0 c-71 0 -78 -2 -78 -20 0 -10 6 -23 14 -27 33 -20 37
-52 36 -286 0 -127 -2 -233 -5 -235 -2 -2 -18 -5 -36 -5 -31 -2 -34 1 -51 48
-9 28 -47 161 -84 298 -56 203 -71 247 -85 247 -10 0 -20 -3 -22 -7z m-357
-82 c11 -22 14 -191 3 -192 -5 0 -28 -1 -53 -2 l-45 -2 -3 94 c-1 52 -1 100 2
108 9 22 83 17 96 -6z m1288 -88 c3 -101 2 -103 -22 -109 -13 -3 -35 -4 -47
-2 -23 3 -24 7 -27 97 -1 52 0 101 3 108 3 10 18 13 47 11 l43 -3 3 -102z
m-1278 -285 c0 -57 -4 -108 -8 -115 -11 -18 -58 -26 -81 -13 -19 10 -21 19
-21 120 l0 110 55 0 55 0 0 -102z m1280 -8 l0 -110 -27 -11 c-19 -7 -35 -7
-50 0 -22 10 -23 16 -23 121 l0 110 50 0 50 0 0 -110z"/>
<path d="M4624 4459 c-61 -18 -124 -104 -143 -197 -17 -84 -14 -212 8 -282 66
-211 249 -243 342 -59 84 166 42 452 -76 520 -39 23 -92 30 -131 18z m66 -59
c61 -33 79 -395 25 -499 -21 -42 -46 -47 -72 -16 -35 40 -46 99 -45 250 0 146
14 218 48 256 20 22 20 22 44 9z"/>
<path d="M5046 4418 c-13 -46 -63 -237 -123 -466 -10 -39 -23 -67 -35 -73 -10
-5 -18 -21 -18 -34 0 -24 2 -25 75 -25 73 0 75 1 75 25 0 14 -6 25 -12 25 -35
1 -41 16 -28 69 l12 51 53 0 c30 0 56 -4 59 -9 4 -5 9 -30 13 -56 5 -41 4 -47
-16 -52 -14 -3 -21 -13 -21 -29 0 -24 1 -24 110 -24 104 0 110 1 107 20 -2 11
-10 26 -19 33 -20 15 -43 86 -113 352 -31 115 -61 217 -66 227 -18 33 -38 20
-53 -34z"/>
<path d="M780 4426 c0 -17 6 -26 15 -26 23 0 35 -43 35 -124 0 -53 -4 -77 -15
-86 -8 -7 -15 -28 -15 -46 0 -24 5 -34 15 -34 12 0 15 -17 15 -92 0 -110 -6
-135 -31 -143 -12 -4 -19 -16 -19 -31 l0 -24 120 0 c79 0 132 5 153 14 174 72
197 470 34 583 -38 27 -46 28 -174 31 l-133 4 0 -26z m228 -51 c35 -25 55
-113 56 -245 0 -163 -26 -236 -84 -242 l-25 -3 -3 113 -3 112 43 0 c42 0 43 1
44 35 1 36 2 35 -58 39 -22 1 -23 5 -26 104 -2 93 -1 102 15 102 10 0 28 -7
41 -15z"/>
<path d="M4082 4348 c3 -96 4 -103 24 -106 18 -3 22 5 33 53 12 54 39 95 61
95 6 0 10 -92 10 -255 l0 -255 -25 0 c-21 0 -25 -5 -25 -30 l0 -30 120 0 120
0 -2 26 c-2 19 -9 27 -30 31 l-28 6 0 253 c0 163 4 254 10 254 22 0 49 -41 61
-94 9 -43 16 -56 31 -56 16 0 18 10 18 105 l0 105 -190 0 -191 0 3 -102z"/>
<path d="M5320 4430 c0 -10 11 -30 25 -44 l25 -25 0 -236 0 -235 -25 -10 c-18
-7 -25 -17 -25 -35 0 -25 1 -25 80 -25 77 0 80 1 80 23 0 16 -9 28 -25 35
l-25 12 0 166 c0 92 3 164 7 160 4 -3 55 -98 114 -209 152 -286 148 -289 151
85 l3 293 23 10 c13 6 22 18 22 32 0 22 -4 23 -80 23 -79 0 -80 0 -80 -25 0
-18 5 -25 19 -25 11 0 23 -5 26 -10 7 -11 10 -239 3 -245 -2 -2 -23 33 -47 78
-24 45 -61 115 -83 155 l-39 72 -75 0 c-67 0 -74 -2 -74 -20z"/>
</g>
</svg>
